<svg width="20" height="20" viewBox="0 0 20 20" fill="none" xmlns="http://www.w3.org/2000/svg">
<path d="M19.5861 9.85253L10.499 1.19713C10.4336 1.13464 10.3559 1.08506 10.2703 1.05124C10.1847 1.01741 10.093 1 10.0004 1C9.90779 1 9.81608 1.01741 9.73052 1.05124C9.64497 1.08506 9.56726 1.13464 9.50183 1.19713L0.414753 9.85253C0.150017 10.1049 0 10.4476 0 10.8051C0 11.5474 0.633161 12.151 1.41193 12.151H2.36939V18.3271C2.36939 18.6993 2.68487 19 3.07535 19H8.58849V14.2896H11.0594V19H16.9255C17.316 19 17.6314 18.6993 17.6314 18.3271V12.151H18.5889C18.9639 12.151 19.3235 12.0101 19.5883 11.7556C20.1376 11.2299 20.1376 10.3782 19.5861 9.85253Z" fill="#356F30"/>
</svg>
