<svg width="20" height="20" viewBox="0 0 20 20" fill="none" xmlns="http://www.w3.org/2000/svg">
<path d="M9.99942 16.8125L5.0094 18.9051C4.82306 18.9834 4.61811 19.014 4.41516 18.9941C4.21221 18.9741 4.01844 18.9042 3.85332 18.7915C3.6882 18.6787 3.55758 18.527 3.47458 18.3517C3.39158 18.1764 3.35914 17.9836 3.38053 17.7927L3.95447 12.6818L0.298219 8.86469C0.161839 8.72215 0.0677372 8.54836 0.025367 8.36079C-0.0170033 8.17322 -0.00615038 7.97846 0.0568355 7.79608C0.119821 7.6137 0.232722 7.45012 0.384198 7.32177C0.535674 7.19342 0.72039 7.10483 0.919793 7.06488L6.26417 5.99833L8.99328 1.54634C9.09526 1.38023 9.24192 1.24229 9.41854 1.14639C9.59515 1.05049 9.79549 1 9.99942 1C10.2034 1 10.4037 1.05049 10.5803 1.14639C10.7569 1.24229 10.9036 1.38023 11.0056 1.54634L13.7358 5.99833L19.0802 7.06488C19.2796 7.10483 19.4643 7.19342 19.6158 7.32177C19.7673 7.45012 19.8802 7.6137 19.9432 7.79608C20.0062 7.97846 20.017 8.17322 19.9746 8.36079C19.9323 8.54836 19.8382 8.72215 19.7018 8.86469L16.0444 12.6829L16.6183 17.7927C16.6397 17.9836 16.6073 18.1764 16.5243 18.3517C16.4413 18.527 16.3106 18.6787 16.1455 18.7915C15.9804 18.9042 15.7866 18.9741 15.5837 18.9941C15.3807 19.014 15.1758 18.9834 14.9894 18.9051L9.99942 16.8147V16.8125Z" fill="#356F30"/>
</svg>
