<svg width="20" height="20" viewBox="0 0 20 20" fill="none" xmlns="http://www.w3.org/2000/svg">
<g clip-path="url(#clip0_101_11)">
<path d="M17.76 14.1548C16.7712 13.1601 15.5712 12.3662 14.2357 11.8233C12.9001 11.2803 11.458 11 10 11C8.54204 11 7.09988 11.2803 5.76434 11.8233C4.42881 12.3662 3.22883 13.1601 2.24 14.1548C2.08733 14.3116 2.00193 14.5149 2 14.7262V18.1544C2.00324 18.3797 2.10192 18.5948 2.27468 18.753C2.44744 18.9113 2.68038 19 2.92308 19H17.0769C17.3217 19 17.5565 18.9097 17.7296 18.749C17.9027 18.5882 18 18.3703 18 18.143V14.7148C17.9951 14.5074 17.9099 14.3086 17.76 14.1548Z" fill="#141414"/>
<path d="M9.5 10C11.9853 10 14 7.98528 14 5.5C14 3.01472 11.9853 1 9.5 1C7.01472 1 5 3.01472 5 5.5C5 7.98528 7.01472 10 9.5 10Z" fill="#141414"/>
</g>
<defs>
<clipPath id="clip0_101_11">
<rect width="20" height="20" fill="white"/>
</clipPath>
</defs>
</svg>
