<svg width="20" height="20" viewBox="0 0 20 20" fill="none" xmlns="http://www.w3.org/2000/svg">
<path d="M15.6571 14.8769L14.5664 16.052C13.7625 16.9108 12.7196 18.0157 11.437 19.367C11.0515 19.773 10.5362 20 10 20C9.46376 20 8.9485 19.773 8.563 19.367L5.35546 15.9679C4.95119 15.5365 4.61491 15.1732 4.34294 14.8769C3.22418 13.6581 2.46231 12.1053 2.15368 10.4148C1.84504 8.72429 2.0035 6.97206 2.60902 5.37966C3.21454 3.78727 4.23992 2.42624 5.5555 1.46867C6.87108 0.5111 8.41777 0 10 0C11.5822 0 13.1289 0.5111 14.4445 1.46867C15.7601 2.42624 16.7855 3.78727 17.391 5.37966C17.9965 6.97206 18.155 8.72429 17.8463 10.4148C17.5377 12.1053 16.7758 13.6581 15.6571 14.8769ZM12.297 8.98964C12.297 8.326 12.055 7.68954 11.6242 7.22028C11.1935 6.75102 10.6092 6.48739 10 6.48739C9.3908 6.48739 8.80655 6.75102 8.37577 7.22028C7.945 7.68954 7.703 8.326 7.703 8.98964C7.703 9.65327 7.945 10.2897 8.37577 10.759C8.80655 11.2283 9.3908 11.4919 10 11.4919C10.6092 11.4919 11.1935 11.2283 11.6242 10.759C12.055 10.2897 12.297 9.65327 12.297 8.98964Z" fill="#141414"/>
</svg>
